<svg width="14" height="20" viewBox="0 0 14 20" fill="none" xmlns="http://www.w3.org/2000/svg">
  <path
    d="M8.99091 6.27526C8.66158 6.22112 8.32406 6.24658 8.00658 6.34951C7.68909 6.45244 7.40084 6.62985 7.16591 6.86692L6.99925 7.03359L6.83258 6.86692C6.43442 6.5019 5.91091 6.30435 5.37086 6.31531C4.83081 6.32627 4.31575 6.54491 3.93273 6.92579C3.54971 7.30666 3.32818 7.82048 3.31418 8.36046C3.30019 8.90044 3.4948 9.42505 3.85758 9.82526L6.69925 12.7919C6.77891 12.8713 6.88678 12.9159 6.99925 12.9159C7.11171 12.9159 7.21958 12.8713 7.29924 12.7919L10.1326 9.83359C10.406 9.56069 10.5989 9.21765 10.6899 8.84223C10.781 8.4668 10.7667 8.07353 10.6487 7.70569C10.5307 7.33785 10.3135 7.00969 10.021 6.75732C9.7285 6.50494 9.37207 6.33814 8.99091 6.27526Z"
    fill="#C7F284" />
  <path
    d="M11.1634 0H2.83008C2.16704 0 1.53115 0.263392 1.06231 0.732233C0.59347 1.20107 0.330078 1.83696 0.330078 2.5V17.5C0.330078 18.163 0.59347 18.7989 1.06231 19.2678C1.53115 19.7366 2.16704 20 2.83008 20H11.1634C11.8265 20 12.4623 19.7366 12.9312 19.2678C13.4 18.7989 13.6634 18.163 13.6634 17.5V2.5C13.6634 1.83696 13.4 1.20107 12.9312 0.732233C12.4623 0.263392 11.8265 0 11.1634 0ZM11.9967 15.8333C11.9967 15.9438 11.9528 16.0498 11.8747 16.128C11.7966 16.2061 11.6906 16.25 11.5801 16.25H2.41341C2.3029 16.25 2.19692 16.2061 2.11878 16.128C2.04064 16.0498 1.99674 15.9438 1.99674 15.8333V2.91667C1.99674 2.80616 2.04064 2.70018 2.11878 2.62204C2.19692 2.5439 2.3029 2.5 2.41341 2.5H11.5801C11.6906 2.5 11.7966 2.5439 11.8747 2.62204C11.9528 2.70018 11.9967 2.80616 11.9967 2.91667V15.8333Z"
    fill="#C7F284" />
</svg>